<svg id="a4d1e35c-dc4c-435f-ab58-9c7a4fa0b81f" data-name="Layer 1" xmlns="http://www.w3.org/2000/svg" xmlns:xlink="http://www.w3.org/1999/xlink" viewBox="0 0 457.22491 318.20382"><defs><style>.ae24de68-8b21-4d5c-b6ac-e9a0f0089d29,.af2b97f4-b165-4a65-8594-81005175f220{fill:none;}.a048395e-1a1c-4fab-8a41-637f0f9881bd,.a0e2eee2-12d9-4457-93f0-93ad8bab8c53,.a6fd70f8-9dcd-4616-aee1-94d50be6f976,.b0702d32-9bc5-408c-99ec-b556c9c66477,.b29e4c49-d1cf-47c7-8388-73921a02cffc,.bc2b9684-85cd-44b4-90bc-4ce38a0fe033,.bdb26817-e9eb-4382-9527-60814f3b7a86,.f1b50ea3-5d70-4134-bad4-bad44b65f58f,.f80a0545-a4e1-46a3-979a-e9081fab81f4{fill:#fff;}.b4257c7d-be12-4b2b-9147-b09e2495a5be{fill:#f5f5f5;}.a65255d1-41c2-4026-9ab7-f5ff3c0ba07f{fill:#1a2e35;}.a93e1eab-7b2c-4233-b30c-1e788a648c69,.b1560ce6-4621-41ac-9b59-dc35375076d7,.b29e4c49-d1cf-47c7-8388-73921a02cffc{opacity:0.3;}.af670d0e-1440-4c2f-943f-082ab6419f93{fill:#007cff;}.ad21aa56-0a66-4d78-b693-192228dfa7e6,.bc2b9684-85cd-44b4-90bc-4ce38a0fe033,.bdb26817-e9eb-4382-9527-60814f3b7a86{opacity:0.4;}.a93e1eab-7b2c-4233-b30c-1e788a648c69,.aadea8fc-7aea-427f-aff6-9dc5ed0e884d,.bdb26817-e9eb-4382-9527-60814f3b7a86,.bfb267ef-9dd2-4faa-af69-1396661017c8,.f1b50ea3-5d70-4134-bad4-bad44b65f58f{isolation:isolate;}.a0e2eee2-12d9-4457-93f0-93ad8bab8c53,.aadea8fc-7aea-427f-aff6-9dc5ed0e884d,.e6889287-5ad6-4ec5-ad6b-9cdcd4352f2d{opacity:0.2;}.b0702d32-9bc5-408c-99ec-b556c9c66477{opacity:0.5;}.a048395e-1a1c-4fab-8a41-637f0f9881bd{opacity:0.7;}.e26baa10-ae09-452b-ac87-a10c21e6f0fe{fill:#fab373;}.be6a1ad9-75b7-4aa4-bc8e-cded4bb5182d{fill:#fcb373;}.baae595a-a0e0-4d9d-b6ef-8a4ecba38dcd{fill:#ffb570;}.e800b18a-f393-4f55-adfa-ccdc9b0f4bce{fill:#ff8935;}.a6fd70f8-9dcd-4616-aee1-94d50be6f976,.f1b50ea3-5d70-4134-bad4-bad44b65f58f{opacity:0.6;}.ae24de68-8b21-4d5c-b6ac-e9a0f0089d29{stroke:#fff;stroke-linecap:round;stroke-linejoin:round;}.bf6fdbbf-5885-4dc8-863a-819697885325{clip-path:url(#bef098f1-6738-47d3-98cd-713f56f641ce);}.a31d65bf-e53a-4749-94e7-f05db64e7ba0{clip-path:url(#b0a69bc4-5894-4a58-9226-21c8518c0367);}</style><clipPath id="bef098f1-6738-47d3-98cd-713f56f641ce"><polygon class="af2b97f4-b165-4a65-8594-81005175f220" points="254.198 126.755 243.462 139.713 257.265 151.676 274.726 144.895 288.293 129.617 288.293 117.772 278.071 112.345 261.512 117.654 254.198 126.755"/></clipPath><clipPath id="b0a69bc4-5894-4a58-9226-21c8518c0367"><polygon class="f80a0545-a4e1-46a3-979a-e9081fab81f4" points="217.902 121.115 217.84 120.315 214.368 118.588 211.204 120.829 211.383 123.141 214.164 124.507 214.445 123.898 212.021 122.693 212.02 122.672 211.935 121.577 217.128 124.159 214.921 125.721 211.449 123.993 211.511 124.795 214.983 126.521 218.147 124.281 217.968 121.968 214.913 120.441 214.625 121.066 217.329 122.411 217.416 123.533 212.223 120.951 214.43 119.388 217.902 121.115"/></clipPath></defs><ellipse id="ade69e2e-d0c8-4e79-9778-7266c911a3d7" data-name="&lt;Path&gt;" class="b4257c7d-be12-4b2b-9147-b09e2495a5be" cx="228.61248" cy="301.33422" rx="210.98729" ry="12.32195"/><polygon class="a65255d1-41c2-4026-9ab7-f5ff3c0ba07f" points="362.616 16.04 358.895 51.787 340.265 51.787 336.543 16.04 362.616 16.04"/><polygon class="b29e4c49-d1cf-47c7-8388-73921a02cffc" points="362.616 16.04 358.895 51.787 340.265 51.787 336.543 16.04 362.616 16.04"/><rect class="a65255d1-41c2-4026-9ab7-f5ff3c0ba07f" x="346.1138" y="44.09926" width="6.93261" height="257.79135"/><rect class="b29e4c49-d1cf-47c7-8388-73921a02cffc" x="346.1138" y="44.09926" width="6.93261" height="257.79135"/><polygon class="af670d0e-1440-4c2f-943f-082ab6419f93" points="356.934 49.606 342.226 49.606 338.961 18.214 360.199 18.214 356.934 49.606"/><polygon class="bdb26817-e9eb-4382-9527-60814f3b7a86" points="356.934 49.606 342.226 49.606 338.961 18.214 360.199 18.214 356.934 49.606"/><polygon class="a65255d1-41c2-4026-9ab7-f5ff3c0ba07f" points="347.646 50.096 346.641 50.096 345.553 17.126 346.558 17.126 347.646 50.096"/><polygon class="b29e4c49-d1cf-47c7-8388-73921a02cffc" points="347.646 50.096 346.641 50.096 345.553 17.126 346.558 17.126 347.646 50.096"/><polygon class="a0e2eee2-12d9-4457-93f0-93ad8bab8c53" points="362.616 16.04 358.895 51.787 347.186 51.787 345.782 16.04 362.616 16.04"/><path class="a65255d1-41c2-4026-9ab7-f5ff3c0ba07f" d="M349.5801,4.54765s-11.04954,10.90579-19.51562,10.90579l2.62667,1.72194h33.77758l2.627-1.72194C360.62932,15.45344,349.5801,4.54765,349.5801,4.54765Z"/><path class="bc2b9684-85cd-44b4-90bc-4ce38a0fe033" d="M369.09093,15.45235l-2.62263,1.71923H332.69093l-2.62242-1.71923c8.46619,0,19.51116-10.90361,19.51116-10.90361S360.62485,15.45235,369.09093,15.45235Z"/><path class="a0e2eee2-12d9-4457-93f0-93ad8bab8c53" d="M369.09093,15.45235l-2.62263,1.71923H344.5306c-.6639-1.0772-1.13182-1.86069-1.13182-1.86069,5.887-2.73135,6.18089-10.76215,6.18089-10.76215S360.62485,15.45235,369.09093,15.45235Z"/><path class="a65255d1-41c2-4026-9ab7-f5ff3c0ba07f" d="M342.73671,297.121H356.4236a1.79734,1.79734,0,0,1,1.79734,1.79734v2.97228a0,0,0,0,1,0,0H340.93937a0,0,0,0,1,0,0v-2.97228A1.79734,1.79734,0,0,1,342.73671,297.121Z"/><path class="b0702d32-9bc5-408c-99ec-b556c9c66477" d="M342.73671,297.121H356.4236a1.79734,1.79734,0,0,1,1.79734,1.79734v2.97228a0,0,0,0,1,0,0H340.93937a0,0,0,0,1,0,0v-2.97228A1.79734,1.79734,0,0,1,342.73671,297.121Z"/><path class="af670d0e-1440-4c2f-943f-082ab6419f93" d="M278.56461,6.8866H247.30312a9.62628,9.62628,0,0,0-9.6263,9.62608v27.207a9.6261,9.6261,0,0,0,9.626,9.62587h12.36429L262.9337,61.936l3.26662-8.59045h12.36461a9.62585,9.62585,0,0,0,9.62576-9.62587v-27.207A9.626,9.626,0,0,0,278.56461,6.8866Z"/><path class="a048395e-1a1c-4fab-8a41-637f0f9881bd" d="M278.56461,6.8866H247.30312a9.62628,9.62628,0,0,0-9.6263,9.62608v27.207a9.6261,9.6261,0,0,0,9.626,9.62587h12.36429L262.9337,61.936l3.26662-8.59045h12.36461a9.62585,9.62585,0,0,0,9.62576-9.62587v-27.207A9.626,9.626,0,0,0,278.56461,6.8866Z"/><g class="bfb267ef-9dd2-4faa-af69-1396661017c8"><circle class="af670d0e-1440-4c2f-943f-082ab6419f93" cx="262.93373" cy="29.99886" r="15.51557" transform="translate(55.79911 194.70868) rotate(-45)"/></g><path class="f80a0545-a4e1-46a3-979a-e9081fab81f4" d="M261.30523,36.92932a1.42558,1.42558,0,0,1-1.0871-.50318l-6.08763-7.17256a1.42573,1.42573,0,1,1,2.1743-1.8448l5.00043,5.89144,8.25758-9.72881a1.4257,1.4257,0,1,1,2.1742,1.8448l-9.34468,11.00993A1.42558,1.42558,0,0,1,261.30523,36.92932Z"/><polygon class="a65255d1-41c2-4026-9ab7-f5ff3c0ba07f" points="321.036 301.891 328.222 301.891 313.532 218.977 306.346 218.977 321.036 301.891"/><polygon class="a65255d1-41c2-4026-9ab7-f5ff3c0ba07f" points="163.08 301.891 170.266 301.891 155.576 218.977 148.39 218.977 163.08 301.891"/><polygon class="b29e4c49-d1cf-47c7-8388-73921a02cffc" points="321.036 301.891 328.222 301.891 313.532 218.977 306.346 218.977 321.036 301.891"/><polygon class="b29e4c49-d1cf-47c7-8388-73921a02cffc" points="163.08 301.891 170.266 301.891 155.576 218.977 148.39 218.977 163.08 301.891"/><rect class="a65255d1-41c2-4026-9ab7-f5ff3c0ba07f" x="100.56823" y="260.4337" width="216.71552" height="7.27745" transform="translate(417.85198 528.14485) rotate(180)"/><rect class="b0702d32-9bc5-408c-99ec-b556c9c66477" x="100.56823" y="260.4337" width="216.71552" height="7.27745" transform="translate(417.85198 528.14485) rotate(180)"/><polygon class="a65255d1-41c2-4026-9ab7-f5ff3c0ba07f" points="254.772 301.891 247.586 301.891 262.276 218.977 269.462 218.977 254.772 301.891"/><polygon class="a65255d1-41c2-4026-9ab7-f5ff3c0ba07f" points="96.816 301.891 89.63 301.891 104.32 218.977 111.506 218.977 96.816 301.891"/><polygon class="b29e4c49-d1cf-47c7-8388-73921a02cffc" points="254.772 301.891 247.586 301.891 262.276 218.977 269.462 218.977 254.772 301.891"/><polygon class="b29e4c49-d1cf-47c7-8388-73921a02cffc" points="96.816 301.891 89.63 301.891 104.32 218.977 111.506 218.977 96.816 301.891"/><polygon class="a65255d1-41c2-4026-9ab7-f5ff3c0ba07f" points="161.979 215.755 169.13 215.755 181.1 149.213 173.949 149.213 161.979 215.755"/><polygon class="b29e4c49-d1cf-47c7-8388-73921a02cffc" points="161.979 215.755 169.13 215.755 181.1 149.213 173.949 149.213 161.979 215.755"/><polygon class="a65255d1-41c2-4026-9ab7-f5ff3c0ba07f" points="303.972 215.755 311.122 215.755 323.092 149.213 315.941 149.213 303.972 215.755"/><polygon class="a65255d1-41c2-4026-9ab7-f5ff3c0ba07f" points="232.975 215.755 240.126 215.755 252.096 149.213 244.945 149.213 232.975 215.755"/><polygon class="b29e4c49-d1cf-47c7-8388-73921a02cffc" points="303.972 215.755 311.122 215.755 323.092 149.213 315.941 149.213 303.972 215.755"/><polygon class="b29e4c49-d1cf-47c7-8388-73921a02cffc" points="232.975 215.755 240.126 215.755 252.096 149.213 244.945 149.213 232.975 215.755"/><polygon class="a65255d1-41c2-4026-9ab7-f5ff3c0ba07f" points="149.629 153.757 337.417 153.757 339.657 141.303 151.869 141.303 149.629 153.757"/><polygon class="a65255d1-41c2-4026-9ab7-f5ff3c0ba07f" points="145.577 176.285 333.365 176.285 335.605 163.831 147.817 163.831 145.577 176.285"/><polygon class="a65255d1-41c2-4026-9ab7-f5ff3c0ba07f" points="141.524 198.813 329.313 198.813 331.553 186.359 143.765 186.359 141.524 198.813"/><rect class="a65255d1-41c2-4026-9ab7-f5ff3c0ba07f" x="88.12919" y="213.79409" width="239.32354" height="8.61462" transform="translate(415.58192 436.20279) rotate(180)"/><polygon class="b0702d32-9bc5-408c-99ec-b556c9c66477" points="149.629 153.757 337.417 153.757 339.657 141.303 151.869 141.303 149.629 153.757"/><polygon class="b0702d32-9bc5-408c-99ec-b556c9c66477" points="145.577 176.285 333.365 176.285 335.605 163.831 147.817 163.831 145.577 176.285"/><polygon class="b0702d32-9bc5-408c-99ec-b556c9c66477" points="141.524 198.813 329.313 198.813 331.553 186.359 143.765 186.359 141.524 198.813"/><rect class="b0702d32-9bc5-408c-99ec-b556c9c66477" x="88.12919" y="213.79409" width="239.32354" height="8.61462" transform="translate(415.58192 436.20279) rotate(180)"/><rect class="a0e2eee2-12d9-4457-93f0-93ad8bab8c53" x="88.12919" y="213.79409" width="180.56362" height="8.61462" transform="translate(356.822 436.20279) rotate(180)"/><path class="e26baa10-ae09-452b-ac87-a10c21e6f0fe" d="M249.86848,124.71406a127.285,127.285,0,0,1-9.53186,9.488c-1.69275,1.502-3.42937,2.979-5.3349,4.39006-.95264.70871-1.94508,1.406-3.05083,2.08912-.55847.33741-1.15049.67019-1.82122.997a12.61559,12.61559,0,0,1-2.49564.92593,7.62,7.62,0,0,1-2.126.21606c-.23947-.01468-.51194-.0428-.7214-.07661l-.38027-.08434c-.24926-.05912-.51288-.12141-.74545-.1915a13.10864,13.10864,0,0,1-2.2568-.9747,23.52383,23.52383,0,0,1-3.27819-2.23744,49.72417,49.72417,0,0,1-5.12088-4.82689,85.34454,85.34454,0,0,1-8.34132-10.58454,2.4908,2.4908,0,0,1,3.70615-3.26456l.05049.045c3.20669,2.80532,6.48439,5.64655,9.74852,8.23386a56.32334,56.32334,0,0,0,4.89413,3.5386,15.24871,15.24871,0,0,0,2.26323,1.2001,3.65054,3.65054,0,0,0,.766.24441c.02992-.00009.03453-.01339.05034-.012l.01846.00237a1.79485,1.79485,0,0,0-.3152-.03949,3.43954,3.43954,0,0,0-.5135.00554c-.02118-.0164.23617-.12874.51962-.30749.29282-.179.6338-.40859.9868-.66529.71512-.50919,1.47235-1.10982,2.22644-1.75083,1.50705-1.29131,3.03472-2.69865,4.5378-4.15054,2.99933-2.89862,6.02376-5.98114,8.92253-8.9818l.05031-.05208a4.9944,4.9944,0,0,1,7.29269,6.82405Z"/><path class="af670d0e-1440-4c2f-943f-082ab6419f93" d="M249.86848,124.71406a127.285,127.285,0,0,1-9.53186,9.488c-1.69275,1.502-3.42937,2.979-5.3349,4.39006-.95264.70871-1.94508,1.406-3.05083,2.08912-.55847.33741-1.15049.67019-1.82122.997a12.61559,12.61559,0,0,1-2.49564.92593,7.62,7.62,0,0,1-2.126.21606c-.23947-.01468-.51194-.0428-.7214-.07661l-.38027-.08434c-.24926-.05912-.51288-.12141-.74545-.1915a13.10864,13.10864,0,0,1-2.2568-.9747,23.52383,23.52383,0,0,1-3.27819-2.23744,49.72417,49.72417,0,0,1-5.12088-4.82689,85.34454,85.34454,0,0,1-8.34132-10.58454,2.4908,2.4908,0,0,1,3.70615-3.26456l.05049.045c3.20669,2.80532,6.48439,5.64655,9.74852,8.23386a56.32334,56.32334,0,0,0,4.89413,3.5386,15.24871,15.24871,0,0,0,2.26323,1.2001,3.65054,3.65054,0,0,0,.766.24441c.02992-.00009.03453-.01339.05034-.012l.01846.00237a1.79485,1.79485,0,0,0-.3152-.03949,3.43954,3.43954,0,0,0-.5135.00554c-.02118-.0164.23617-.12874.51962-.30749.29282-.179.6338-.40859.9868-.66529.71512-.50919,1.47235-1.10982,2.22644-1.75083,1.50705-1.29131,3.03472-2.69865,4.5378-4.15054,2.99933-2.89862,6.02376-5.98114,8.92253-8.9818l.05031-.05208a4.9944,4.9944,0,0,1,7.29269,6.82405Z"/><path class="e6889287-5ad6-4ec5-ad6b-9cdcd4352f2d" d="M240.08356,136.62806c-2.02414,1.51247-4.23326,3.09034-6.3007,4.42891.48968-8.94488,4.70106-12.38354,4.70106-12.38354A15.52775,15.52775,0,0,1,240.08356,136.62806Z"/><path class="a65255d1-41c2-4026-9ab7-f5ff3c0ba07f" d="M253.3802,74.26113c-7.50826,6.128-6.6264,23.75508,1.81542,35.3239,0,0,18.0198,1.51019,28.02751-2.97063,10.00771-4.48071-1.05435-33.024-11.63422-35.27113A25.23019,25.23019,0,0,0,253.3802,74.26113Z"/><path class="a65255d1-41c2-4026-9ab7-f5ff3c0ba07f" d="M253.81732,92.5829c-2.75028-4.74992-5.484-17.552,5.961-21.50841C274.0654,66.13566,280.47,75.24605,281.704,84.276c1.23422,9.02986-3.854,15.85812-13.297,15.17909C258.96433,98.7762,255.71969,95.86846,253.81732,92.5829Z"/><path class="a65255d1-41c2-4026-9ab7-f5ff3c0ba07f" d="M238.48251,128.67648c-1.398,6.60082,1.05086,22.16317,1.4536,33.89152l33.644,3.87785c.00914-3.68133.68991-9.01561,2.88108-17.48931,1.262-4.96386,3.06-11.0084,5.53-18.4283.36346-1.10385.74138-2.22708,1.13879-3.39078a8.37047,8.37047,0,0,0-6.56731-11.2427c-1.409-.22405-2.91176-.42221-4.44632-.57129a113.58926,113.58926,0,0,0-16.26978-.86424c-1.77538.05833-3.62137.19141-5.39218.33941C244.09123,115.3337,239.78724,122.48971,238.48251,128.67648Z"/><path class="be6a1ad9-75b7-4aa4-bc8e-cded4bb5182d" d="M271.945,96.9413c-1.69441,5.15876-3.94315,14.65633-.72723,18.32983,0,0-4.91806-1.0081-15.78989,4.94166-2.81536-4.53338-.47707-5.80634-.47707-5.80634,6.01451-1.07773,6.41681-5.39913,5.9194-9.50377Z"/><path class="e6889287-5ad6-4ec5-ad6b-9cdcd4352f2d" d="M267.42964,100.19l-6.55435,4.70836a16.28165,16.28165,0,0,1,.13287,2.90273c2.27082-.20251,5.64659-2.47747,6.18132-4.7903A7.82481,7.82481,0,0,0,267.42964,100.19Z"/><path class="baae595a-a0e0-4d9d-b6ef-8a4ecba38dcd" d="M274.191,84.89466c.1159,8.6107.34877,12.25285-3.65053,16.97656-6.01592,7.10552-16.61746,5.36475-19.30375-3.03789-2.41784-7.563-2.20118-20.37387,5.93322-24.41354A11.74521,11.74521,0,0,1,274.191,84.89466Z"/><path class="a65255d1-41c2-4026-9ab7-f5ff3c0ba07f" d="M266.89012,76.84155c-2.38715,2.99131,3.05193,12.416,7.3335,14.02191C282.55117,88.1183,274.01545,67.91332,266.89012,76.84155Z"/><path class="a65255d1-41c2-4026-9ab7-f5ff3c0ba07f" d="M256.69557,72.83082c-3.1664,1.3931-6.13856,7.34427-6.52574,9.56787,4.70717.35344,16.83651-5.08955,16.83651-5.08955s8.54922,1.57449,3.95011-2.28769C266.35724,71.15926,256.69557,72.83082,256.69557,72.83082Z"/><path class="a65255d1-41c2-4026-9ab7-f5ff3c0ba07f" d="M259.873,88.3984c.05223.69785-.2752,1.29135-.73148,1.32552-.45605.03416-.86826-.50383-.9206-1.2018-.05234-.69785.27509-1.29135.73137-1.32551C259.40842,87.16233,259.82073,87.70044,259.873,88.3984Z"/><path class="a65255d1-41c2-4026-9ab7-f5ff3c0ba07f" d="M251.98427,88.9895c.05235.69785-.27509,1.29135-.73126,1.32552s-.86848-.50383-.92071-1.20179c-.05234-.698.27509-1.29135.73126-1.32552C251.51984,87.75354,251.932,88.29154,251.98427,88.9895Z"/><path class="a65255d1-41c2-4026-9ab7-f5ff3c0ba07f" d="M251.268,87.81121l-1.71248-.35757S250.5137,88.69852,251.268,87.81121Z"/><path class="e800b18a-f393-4f55-adfa-ccdc9b0f4bce" d="M255.32979,89.86092a18.6961,18.6961,0,0,1-2.15417,4.64067,3.01,3.01,0,0,0,2.523.28043Z"/><path class="a65255d1-41c2-4026-9ab7-f5ff3c0ba07f" d="M259.70963,97.23011a6.7522,6.7522,0,0,1-1.02246.15419.20515.20515,0,0,1-.22025-.18967.21082.21082,0,0,1,.18912-.22014,5.51912,5.51912,0,0,0,4.34567-2.49891.20557.20557,0,0,1,.3603.19805A5.75609,5.75609,0,0,1,259.70963,97.23011Z"/><path class="baae595a-a0e0-4d9d-b6ef-8a4ecba38dcd" d="M277.10252,92.57986a6.29586,6.29586,0,0,1-3.00807,3.74934c-1.9423,1.04759-3.39775-.5726-3.26357-2.65931.12078-1.87821,1.277-4.68648,3.42158-4.8742A2.82684,2.82684,0,0,1,277.10252,92.57986Z"/><path class="a65255d1-41c2-4026-9ab7-f5ff3c0ba07f" d="M263.7382,86.35076a.4108.4108,0,0,1-.44464-.18815c-.98219-1.62825-3.4231-1.82129-3.44737-1.82314a.411.411,0,1,1,.05866-.81984c.11774.00838,2.89283.22939,4.09244,2.21826a.41114.41114,0,0,1-.13972.56434A.41626.41626,0,0,1,263.7382,86.35076Z"/><path class="a65255d1-41c2-4026-9ab7-f5ff3c0ba07f" d="M250.16026,85.31949a.411.411,0,0,1-.37771-.69709,4.08,4.08,0,0,1,3.5724-1.14565.411.411,0,0,1-.18455.801h0a3.25659,3.25659,0,0,0-2.81906.93812A.41018.41018,0,0,1,250.16026,85.31949Z"/><path class="a65255d1-41c2-4026-9ab7-f5ff3c0ba07f" d="M259.15661,87.22011l-1.71248-.35758S258.40239,88.10742,259.15661,87.22011Z"/><path class="be6a1ad9-75b7-4aa4-bc8e-cded4bb5182d" d="M228.576,119.0085l.81505,2.54951a3.11417,3.11417,0,0,0,2.01619,2.01749l4.48006,1.435a5.80673,5.80673,0,0,0,5.25375-.88328l.93182-.6984c-1.06272-4.321-5.39479-8.20763-5.39479-8.20763l-1.1118-1.24478a2.59066,2.59066,0,0,0-3.67382-.293l-2.49521,2.17148A2.98534,2.98534,0,0,0,228.576,119.0085Z"/><path class="be6a1ad9-75b7-4aa4-bc8e-cded4bb5182d" d="M198.44884,121.34385l.81505,2.54951a3.11421,3.11421,0,0,0,2.01619,2.01739l4.48005,1.43509a5.80648,5.80648,0,0,0,5.25376-.88338l.93181-.6984c-1.06272-4.32086-5.39478-8.20753-5.39478-8.20753l-1.11191-1.24488a2.59061,2.59061,0,0,0-3.67371-.293L199.27,118.19007A2.98543,2.98543,0,0,0,198.44884,121.34385Z"/><path class="e6889287-5ad6-4ec5-ad6b-9cdcd4352f2d" d="M263.48508,135.01145c2.16342,6.37546,7.68759,11.13214,12.97607,13.94509,1.262-4.96386,3.06-11.0084,5.53-18.4283-3.31711-4.64067-7.96616-7.93689-13.87827-7.04611C268.11292,123.48213,261.29391,128.55286,263.48508,135.01145Z"/><path class="be6a1ad9-75b7-4aa4-bc8e-cded4bb5182d" d="M144.07746,261.5246l5.67771,2.29281s48.26884-72.80589,52.7353-70.07008c16.18174,9.91206,49.44647,27.6276,65.18968,16.90027,15.74124-10.71721,6.3982-39.01165,6.3982-39.01165s-30.61576-10.74637-34.39851-4.10224a50.85791,50.85791,0,0,0-2.60142,6.121c-.79111,2.10521-1.39995,3.88373-1.39995,3.88373a.03232.03232,0,0,1-.01849-.01436c-.92638-.43973-30.93819-14.87581-45.07165-8.92943C176.23136,174.646,144.07746,261.5246,144.07746,261.5246Z"/><path class="be6a1ad9-75b7-4aa4-bc8e-cded4bb5182d" d="M248.73757,214.53427s-15.18258.99221-35.97627-6.07327c0,0-5.1259,57.9798-8.567,89.44445l-6.97407-.98121S185.372,211.031,187.71607,200.55882c2.34384-10.47215,15.01782-11.15934,15.01782-11.15934S226.99878,207.2036,248.73757,214.53427Z"/><path class="af670d0e-1440-4c2f-943f-082ab6419f93" d="M248.73757,214.53427c-.33887-.06725-15.18258.55367-30.365-3.75369l1.97539-8.24877C228.00209,207.57119,238.65684,210.64586,248.73757,214.53427Z"/><path class="bc2b9684-85cd-44b4-90bc-4ce38a0fe033" d="M248.73757,214.53427c-.33887-.06725-15.18258.55367-30.365-3.75369l1.97539-8.24877C228.00209,207.57119,238.65684,210.64586,248.73757,214.53427Z"/><polygon class="af670d0e-1440-4c2f-943f-082ab6419f93" points="219.066 201.674 217.245 210.854 220.015 211.797 222.144 203.692 219.066 201.674"/><polygon class="f1b50ea3-5d70-4134-bad4-bad44b65f58f" points="219.066 201.674 217.245 210.854 220.015 211.797 222.144 203.692 219.066 201.674"/><path class="aadea8fc-7aea-427f-aff6-9dc5ed0e884d" d="M190.23424,237.07352c-1.09744-22.8175-1.568-34.64824,2.18529-39.36705a16.57442,16.57442,0,0,1,9.63033-5.56966c4.87017,12.35123,26.14343,20.06015,26.7,20.26669l.01023.002c7.9369,1.64892,19.69006,2.07179,19.97745,2.12881a78.35493,78.35493,0,0,1-28.39032-12.00311,178.53727,178.53727,0,0,1-17.616-13.1295s-12.674.68719-15.018,11.15934c-.95586,4.28124.46248,21.1764,2.46224,39.65933A27.839,27.839,0,0,0,190.23424,237.07352Z"/><path class="a65255d1-41c2-4026-9ab7-f5ff3c0ba07f" d="M138.40388,256.74257a.92042.92042,0,0,1,.217-1.026,1.02638,1.02638,0,0,1,.73747-.37422,3.90271,3.90271,0,0,1,2.05.68642c-.533-.70394-.94161-1.44924-.75727-1.91912.12057-.30589.42646-.46346.91037-.46792a1.464,1.464,0,0,1,1.14042.4887c.95271,1.03345.75,3.395.74,3.5057a.25064.25064,0,0,1-.03711.11089.25456.25456,0,0,1-.12111.10163l-.00066.00033-.00054-.00011a.24558.24558,0,0,1-.08956.01774,16.38289,16.38289,0,0,1-3.03506-.23483C139.33917,257.46926,138.62413,257.19733,138.40388,256.74257Zm.99939-.89688a.53217.53217,0,0,0-.38925.18945c-.24473.30165-.1777.44094-.15539.48653.25518.52625,2.07212.78252,3.60516.83137C141.5891,256.68566,140.19873,255.773,139.40327,255.84569Zm2.16309-1.69887c-.14451.00152-.39512.02274-.44441.14788-.15855.40219.774,1.65306,1.83794,2.73777a4.18021,4.18021,0,0,0-.63006-2.56018.96153.96153,0,0,0-.53049-.3048A1.16587,1.16587,0,0,0,141.56636,254.14682Z"/><path class="a65255d1-41c2-4026-9ab7-f5ff3c0ba07f" d="M190.41368,291.95624a.92105.92105,0,0,1-.24484-1.01963,1.02577,1.02577,0,0,1,.505-.65454,3.93692,3.93692,0,0,1,2.14645-.26117c-.784-.40644-1.47351-.90406-1.50877-1.40757-.02231-.328.18662-.60144.621-.81407a1.47522,1.47522,0,0,1,1.23988-.04853c1.3056.52494,2.13719,2.74734,2.17452,2.84811a.24734.24734,0,0,1,.01382.118v.00108a.25007.25007,0,0,1-.01284.0543h0l-.00055.001a.24258.24258,0,0,1-.05615.08945.23757.23757,0,0,1-.06083.04647h-.00054l-.00044.00054-.00925.00457a11.866,11.866,0,0,1-3.99037,1.26241A1.29473,1.29473,0,0,1,190.41368,291.95624Zm.51721-1.23879a.532.532,0,0,0-.2703.33777c-.09152.3776.0296.47434.069.50644.45432.365,2.20673-.1839,3.61266-.79818C193.26494,290.537,191.61721,290.31112,190.93089,290.71745Zm1.22345-2.46333c-.13026.06323-.34746.19011-.33832.32407.03015.43081,1.40953,1.16011,2.83592,1.68244a4.17115,4.17115,0,0,0-1.66819-2.04067.97217.97217,0,0,0-.82941.03416Z"/><path class="a65255d1-41c2-4026-9ab7-f5ff3c0ba07f" d="M153.33856,261.36584c.31035-.71625-8.65368-4.17635-8.65368-4.17635s-7.87008,2.97847-13.63876,1.80291c-5.76869-1.17524-4.30051,3.28827,1.51573,5.97065,5.81635,2.68205,10.25505,4.72914,14.38776,6.63488C151.0821,273.50367,150.12276,268.79226,153.33856,261.36584Z"/><path class="a65255d1-41c2-4026-9ab7-f5ff3c0ba07f" d="M205.88626,289.7148c-.02764-.78012-9.6089-.05333-9.6089-.05333s-5.8269,6.07077-11.541,7.48791c-5.71417,1.417-2.47051,4.81685,3.9339,4.74,6.40451-.07694,11.29209-.13548,15.84277-.19011C209.06354,301.64468,206.173,297.8024,205.88626,289.7148Z"/><path class="af670d0e-1440-4c2f-943f-082ab6419f93" d="M274.07835,171.636s-30.61565-10.74637-34.39851-4.10224a50.881,50.881,0,0,0-2.60131,6.12093c-.79111,2.10532-1.39995,3.88384-1.39995,3.88384a.0327.0327,0,0,1-.0186-.01436c-.03657-.0173-2.51-1.15206-2.51-1.15206L222.89078,206.985c16.30667,9.045,39.36531,10.09629,48.80727,3.66261C287.43941,199.93039,274.07835,171.636,274.07835,171.636Z"/><g class="ad21aa56-0a66-4d78-b693-192228dfa7e6"><path class="f80a0545-a4e1-46a3-979a-e9081fab81f4" d="M274.07835,171.636s-30.61565-10.74637-34.39851-4.10224a50.881,50.881,0,0,0-2.60131,6.12093c-.79111,2.10532-1.39995,3.88384-1.39995,3.88384a.0327.0327,0,0,1-.0186-.01436c-.03657-.0173-2.51-1.15206-2.51-1.15206L222.89078,206.985c16.30667,9.045,39.36531,10.09629,48.80727,3.66261C287.43941,199.93039,274.07835,171.636,274.07835,171.636Z"/></g><path class="a93e1eab-7b2c-4233-b30c-1e788a648c69" d="M235.67847,177.53848l17.6668,7.4951s-9.0685-7.64624-16.26685-11.37883C236.28731,175.76,235.67847,177.53848,235.67847,177.53848Z"/><polygon class="af670d0e-1440-4c2f-943f-082ab6419f93" points="239.244 168.376 239.862 160.818 274.078 165.366 274.532 172.661 239.244 168.376"/><polygon class="bc2b9684-85cd-44b4-90bc-4ce38a0fe033" points="239.244 168.376 239.862 160.818 274.078 165.366 274.532 172.661 239.244 168.376"/><polygon class="a65255d1-41c2-4026-9ab7-f5ff3c0ba07f" points="239.931 161.558 241.716 161.819 241.161 167.707 239.681 167.532 239.931 161.558"/><polygon class="a65255d1-41c2-4026-9ab7-f5ff3c0ba07f" points="243.413 162.059 262.707 164.866 262.206 170.22 242.869 167.913 243.413 162.059"/><polygon class="a65255d1-41c2-4026-9ab7-f5ff3c0ba07f" points="274.078 171.635 263.915 170.427 264.405 165.117 264.415 165.117 273.589 166.444 274.078 171.635"/><polygon class="aadea8fc-7aea-427f-aff6-9dc5ed0e884d" points="239.931 161.558 241.716 161.819 241.161 167.707 239.681 167.532 239.931 161.558"/><polygon class="aadea8fc-7aea-427f-aff6-9dc5ed0e884d" points="243.413 162.059 262.707 164.866 262.206 170.22 242.869 167.913 243.413 162.059"/><polygon class="aadea8fc-7aea-427f-aff6-9dc5ed0e884d" points="274.078 171.635 263.915 170.427 264.405 165.117 264.415 165.117 273.589 166.444 274.078 171.635"/><path class="ae24de68-8b21-4d5c-b6ac-e9a0f0089d29" d="M248.27608,163.26442h5.70825a.93711.93711,0,0,1,.93711.93711v3.87622a.93711.93711,0,0,1-.93711.93711h-5.70828a.93718.93718,0,0,1-.93718-.93718v-3.876a.93721.93721,0,0,1,.93721-.93721Z" transform="translate(478.28472 363.79979) rotate(-172.45895)"/><line class="ae24de68-8b21-4d5c-b6ac-e9a0f0089d29" x1="251.94934" y1="166.13964" x2="253.88653" y2="166.44585"/><polygon class="af670d0e-1440-4c2f-943f-082ab6419f93" points="231.683 174.256 234.536 175.76 224.862 208.642 220.801 207.837 231.683 174.256"/><polygon class="f1b50ea3-5d70-4134-bad4-bad44b65f58f" points="231.683 174.256 234.536 175.76 224.862 208.642 220.801 207.837 231.683 174.256"/><path class="a65255d1-41c2-4026-9ab7-f5ff3c0ba07f" d="M229.40139,141.057H205.42682a1.864,1.864,0,0,1-1.81781-1.68037l-3.338-31.81929a1.51347,1.51347,0,0,1,1.52727-1.68038h23.97457a1.86407,1.86407,0,0,1,1.81781,1.68038l3.338,31.81929A1.51352,1.51352,0,0,1,229.40139,141.057Z"/><path class="a6fd70f8-9dcd-4616-aee1-94d50be6f976" d="M229.40139,141.057H205.42682a1.864,1.864,0,0,1-1.81781-1.68037l-3.338-31.81929a1.51347,1.51347,0,0,1,1.52727-1.68038h23.97457a1.86407,1.86407,0,0,1,1.81781,1.68038l3.338,31.81929A1.51352,1.51352,0,0,1,229.40139,141.057Z"/><path class="a0e2eee2-12d9-4457-93f0-93ad8bab8c53" d="M228.39939,141.057H205.42682a1.864,1.864,0,0,1-1.81781-1.68037l-3.338-31.81929a1.51347,1.51347,0,0,1,1.52727-1.68038h22.97246a1.86418,1.86418,0,0,1,1.81792,1.68038l3.338,31.81929A1.51353,1.51353,0,0,1,228.39939,141.057Z"/><path class="b1560ce6-4621-41ac-9b59-dc35375076d7" d="M219.6087,108.40326H206.946a1.68086,1.68086,0,0,1-1.48635-.95618l-.75858-1.57015h16.71572l-.48707,1.57015A1.35788,1.35788,0,0,1,219.6087,108.40326Z"/><path class="af670d0e-1440-4c2f-943f-082ab6419f93" d="M280.73793,181.23276h-4.45046s-5.56073-16.69286-8.80352-30.83927a102.66306,102.66306,0,0,1-2.07833-11.34977,32.537,32.537,0,0,1,1.0773-12.60118,31.56086,31.56086,0,0,1,5.63669-11.12114l-.9033-.05441c8.42288-.08705,12.97138,2.82917,13.537,8.07433.577,5.23417-8.74879,36.367-9.18428,40.5239C275.14477,168.03308,280.73793,181.23276,280.73793,181.23276Z"/><path class="af670d0e-1440-4c2f-943f-082ab6419f93" d="M251.98982,114.67774s-8.90548,14.03519-11.29155,20.00661c-2.386,5.9713-1.01745,23.04373-1.01745,23.04373s-4.55939-20.55092-1.62521-30.73927C240.9898,116.80057,246.05715,114.70723,251.98982,114.67774Z"/><path class="e26baa10-ae09-452b-ac87-a10c21e6f0fe" d="M282.14525,127.08478a82.99328,82.99328,0,0,1-8.93634,11.28274,40.69148,40.69148,0,0,1-5.76029,5.11159,17.15661,17.15661,0,0,1-4.10081,2.238,10.12183,10.12183,0,0,1-3.15065.62308,7.85217,7.85217,0,0,1-2.04946-.22268,7.54381,7.54381,0,0,1-1.02476-.33275l-.554-.25419a19.43816,19.43816,0,0,1-3.66-2.30232,35.63881,35.63881,0,0,1-2.89365-2.53074,60.33468,60.33468,0,0,1-4.86027-5.38041,88.90471,88.90471,0,0,1-7.9175-11.63537,2.4869,2.4869,0,0,1,3.96356-2.94717l.04883.05255c3.04494,3.22589,6.2169,6.4573,9.39656,9.44939,1.59256,1.49639,3.22424,2.92313,4.85657,4.19459a19.45863,19.45863,0,0,0,4.65259,2.86612l.22941.08327a1.12807,1.12807,0,0,0-.21014-.084,1.822,1.822,0,0,0-.35561-.07119c-.12481-.01969-.03142-.03753.1594-.14025a11.04684,11.04684,0,0,0,1.7631-1.21225,39.21643,39.21643,0,0,0,4.19484-4.198c2.745-3.14893,5.46224-6.72524,7.91782-10.16152l.07681-.10748a4.99362,4.99362,0,0,1,8.214,5.679Z"/><path class="baae595a-a0e0-4d9d-b6ef-8a4ecba38dcd" d="M205.412,119.61625l-.15572,2.088a2.39537,2.39537,0,0,1-2.03719,2.19138l-2.83809.42124.67054-7.66169,2.37137.42091A2.39557,2.39557,0,0,1,205.412,119.61625Z"/><g class="bf6fdbbf-5885-4dc8-863a-819697885325"><path class="af670d0e-1440-4c2f-943f-082ab6419f93" d="M282.21617,127.19724A82.9925,82.9925,0,0,1,273.27983,138.48a40.691,40.691,0,0,1-5.76029,5.11159,17.15657,17.15657,0,0,1-4.10081,2.238,10.12171,10.12171,0,0,1-3.15065.62308,7.85257,7.85257,0,0,1-2.04945-.22268,7.54443,7.54443,0,0,1-1.02477-.33275l-.554-.25419a19.438,19.438,0,0,1-3.66-2.30233,35.63687,35.63687,0,0,1-2.89365-2.53074,60.33049,60.33049,0,0,1-4.86029-5.38041,88.90643,88.90643,0,0,1-7.91748-11.63536A2.4869,2.4869,0,0,1,241.272,120.847l.04882.05255c3.045,3.2259,6.21691,6.4573,9.39656,9.44939,1.59256,1.4964,3.22425,2.92314,4.85657,4.1946a19.45867,19.45867,0,0,0,4.6526,2.86612l.2294.08326a1.12788,1.12788,0,0,0-.21014-.084,1.8228,1.8228,0,0,0-.35559-.07119c-.12483-.01968-.03142-.03753.15938-.14024a11.04747,11.04747,0,0,0,1.76312-1.21226,39.21449,39.21449,0,0,0,4.19482-4.198c2.745-3.14893,5.46224-6.72524,7.91784-10.16151l.07679-.10748a4.99361,4.99361,0,0,1,8.214,5.679Z"/></g><polygon class="f80a0545-a4e1-46a3-979a-e9081fab81f4" points="217.902 121.115 217.84 120.315 214.368 118.588 211.204 120.829 211.383 123.141 214.164 124.507 214.445 123.898 212.021 122.693 212.02 122.672 211.935 121.577 217.128 124.159 214.921 125.721 211.449 123.993 211.511 124.795 214.983 126.521 218.147 124.281 217.968 121.968 214.913 120.441 214.625 121.066 217.329 122.411 217.416 123.533 212.223 120.951 214.43 119.388 217.902 121.115"/><g class="a31d65bf-e53a-4749-94e7-f05db64e7ba0"><polygon class="f80a0545-a4e1-46a3-979a-e9081fab81f4" points="215.747 121.496 215.444 122.304 217.257 121.714 217.185 121.335 215.747 121.496"/><polygon class="f80a0545-a4e1-46a3-979a-e9081fab81f4" points="213.796 121.714 214.676 122.555 215.444 122.304 215.747 121.496 213.796 121.714"/><polygon class="f80a0545-a4e1-46a3-979a-e9081fab81f4" points="217.185 121.335 219.069 121.124 217.518 119.643 216.861 119.613 217.185 121.335"/><polygon class="f80a0545-a4e1-46a3-979a-e9081fab81f4" points="215.173 123.03 215.444 122.304 214.676 122.555 215.173 123.03"/><polygon class="f80a0545-a4e1-46a3-979a-e9081fab81f4" points="217.257 121.714 219.069 121.124 217.185 121.335 217.257 121.714"/><polygon class="f80a0545-a4e1-46a3-979a-e9081fab81f4" points="213.796 121.714 212.162 121.896 212.098 121.967 212.479 123.27 214.676 122.555 213.796 121.714"/><polygon class="f80a0545-a4e1-46a3-979a-e9081fab81f4" points="215.747 121.496 216.458 119.595 214.32 119.498 213.005 120.959 213.796 121.714 215.747 121.496"/><polygon class="f80a0545-a4e1-46a3-979a-e9081fab81f4" points="217.185 121.335 216.861 119.613 216.458 119.595 215.747 121.496 217.185 121.335"/><polygon class="f80a0545-a4e1-46a3-979a-e9081fab81f4" points="212.08 121.905 212.098 121.967 212.162 121.896 212.08 121.905"/><polygon class="f80a0545-a4e1-46a3-979a-e9081fab81f4" points="212.479 123.27 213.111 125.429 214.249 125.503 215.173 123.03 214.676 122.555 212.479 123.27"/><polygon class="f80a0545-a4e1-46a3-979a-e9081fab81f4" points="213.005 120.959 212.162 121.896 213.796 121.714 213.005 120.959"/><polygon class="f80a0545-a4e1-46a3-979a-e9081fab81f4" points="216.861 119.613 216.723 118.883 216.458 119.595 216.861 119.613"/><polygon class="f80a0545-a4e1-46a3-979a-e9081fab81f4" points="217.518 119.643 216.723 118.883 216.861 119.613 217.518 119.643"/><polygon class="f80a0545-a4e1-46a3-979a-e9081fab81f4" points="213.623 127.177 218.016 125.747 214.249 125.503 213.623 127.177"/><polygon class="f80a0545-a4e1-46a3-979a-e9081fab81f4" points="213.111 125.429 213.623 127.177 214.249 125.503 213.111 125.429"/><polygon class="f80a0545-a4e1-46a3-979a-e9081fab81f4" points="211.698 125.338 213.623 127.177 213.111 125.429 211.698 125.338"/><polygon class="f80a0545-a4e1-46a3-979a-e9081fab81f4" points="212.479 123.27 210.282 123.985 211.698 125.338 213.111 125.429 212.479 123.27"/><polygon class="f80a0545-a4e1-46a3-979a-e9081fab81f4" points="214.249 125.503 218.016 125.747 215.173 123.03 214.249 125.503"/><polygon class="f80a0545-a4e1-46a3-979a-e9081fab81f4" points="217.257 121.714 218.016 125.747 218.63 123.051 219.069 121.124 217.257 121.714"/><polygon class="f80a0545-a4e1-46a3-979a-e9081fab81f4" points="215.444 122.304 215.173 123.03 218.016 125.747 217.257 121.714 215.444 122.304"/><polygon class="f80a0545-a4e1-46a3-979a-e9081fab81f4" points="215.728 117.933 211.335 119.363 214.32 119.498 215.728 117.933"/><polygon class="f80a0545-a4e1-46a3-979a-e9081fab81f4" points="214.32 119.498 211.335 119.363 213.005 120.959 214.32 119.498"/><polygon class="f80a0545-a4e1-46a3-979a-e9081fab81f4" points="216.458 119.595 216.723 118.883 215.728 117.933 214.32 119.498 216.458 119.595"/><polygon class="f80a0545-a4e1-46a3-979a-e9081fab81f4" points="212.098 121.967 210.282 123.985 212.479 123.27 212.098 121.967"/><polygon class="f80a0545-a4e1-46a3-979a-e9081fab81f4" points="212.162 121.896 213.005 120.959 211.335 119.363 212.08 121.905 212.162 121.896"/><polygon class="f80a0545-a4e1-46a3-979a-e9081fab81f4" points="211.335 119.363 210.722 122.057 212.08 121.905 211.335 119.363"/><polygon class="f80a0545-a4e1-46a3-979a-e9081fab81f4" points="212.08 121.905 210.722 122.057 210.282 123.985 212.098 121.967 212.08 121.905"/></g></svg>