<svg id="a65422b6-b1b4-4ac9-863a-17745d307f99" data-name="Layer 1" xmlns="http://www.w3.org/2000/svg" xmlns:xlink="http://www.w3.org/1999/xlink" viewBox="0 0 24 24"><defs><style>.a2237137-2868-4663-8af1-b1534f303f19{fill:#fff;}.b6742628-7e06-47b3-9481-966706aea758{clip-path:url(#b6c25207-954d-4058-8d05-7e26f8bfca0e);}</style><clipPath id="b6c25207-954d-4058-8d05-7e26f8bfca0e"><polygon class="a2237137-2868-4663-8af1-b1534f303f19" points="21.878 8.479 21.878 6.096 12 0.192 2.122 6.096 2.122 12.979 10.039 17.659 11.008 15.921 4.114 11.8 4.114 11.737 4.114 8.477 18.89 17.309 12 21.427 2.122 15.517 2.122 17.904 12 23.808 21.878 17.904 21.878 11.017 13.189 5.798 12.193 7.584 19.886 12.182 19.886 15.523 5.11 6.691 12 2.573 21.878 8.479"/></clipPath></defs><polygon class="a2237137-2868-4663-8af1-b1534f303f19" points="21.878 8.479 21.878 6.096 12 0.192 2.122 6.096 2.122 12.979 10.039 17.659 11.008 15.921 4.114 11.8 4.114 11.737 4.114 8.477 18.89 17.309 12 21.427 2.122 15.517 2.122 17.904 12 23.808 21.878 17.904 21.878 11.017 13.189 5.798 12.193 7.584 19.886 12.182 19.886 15.523 5.11 6.691 12 2.573 21.878 8.479"/><g class="b6742628-7e06-47b3-9481-966706aea758"><polygon class="a2237137-2868-4663-8af1-b1534f303f19" points="15.413 9.112 14.333 11.435 19.831 10.105 19.706 8.966 15.413 9.112"/><polygon class="a2237137-2868-4663-8af1-b1534f303f19" points="9.588 9.31 12 12 14.333 11.435 15.413 9.112 9.588 9.31"/><polygon class="a2237137-2868-4663-8af1-b1534f303f19" points="19.706 8.966 25.329 8.775 21.079 4.034 19.141 3.795 19.706 8.966"/><polygon class="a2237137-2868-4663-8af1-b1534f303f19" points="13.363 13.521 14.333 11.435 12 12 13.363 13.521"/><polygon class="a2237137-2868-4663-8af1-b1534f303f19" points="19.831 10.105 25.329 8.775 19.706 8.966 19.831 10.105"/><polygon class="a2237137-2868-4663-8af1-b1534f303f19" points="9.588 9.31 4.712 9.475 4.506 9.671 5.336 13.613 12 12 9.588 9.31"/><polygon class="a2237137-2868-4663-8af1-b1534f303f19" points="15.413 9.112 17.952 3.649 11.648 2.872 7.423 6.894 9.588 9.31 15.413 9.112"/><polygon class="a2237137-2868-4663-8af1-b1534f303f19" points="19.706 8.966 19.141 3.795 17.952 3.649 15.413 9.112 19.706 8.966"/><polygon class="a2237137-2868-4663-8af1-b1534f303f19" points="4.467 9.484 4.506 9.671 4.712 9.475 4.467 9.484"/><polygon class="a2237137-2868-4663-8af1-b1534f303f19" points="5.336 13.613 6.711 20.148 10.061 20.627 13.363 13.521 12 12 5.336 13.613"/><polygon class="a2237137-2868-4663-8af1-b1534f303f19" points="7.423 6.894 4.712 9.475 9.588 9.31 7.423 6.894"/><polygon class="a2237137-2868-4663-8af1-b1534f303f19" points="19.141 3.795 18.902 1.605 17.952 3.649 19.141 3.795"/><polygon class="a2237137-2868-4663-8af1-b1534f303f19" points="21.079 4.034 18.902 1.605 19.141 3.795 21.079 4.034"/><polygon class="a2237137-2868-4663-8af1-b1534f303f19" points="7.825 25.437 21.153 22.211 10.061 20.627 7.825 25.437"/><polygon class="a2237137-2868-4663-8af1-b1534f303f19" points="6.711 20.148 7.825 25.437 10.061 20.627 6.711 20.148"/><polygon class="a2237137-2868-4663-8af1-b1534f303f19" points="2.551 19.554 7.825 25.437 6.711 20.148 2.551 19.554"/><polygon class="a2237137-2868-4663-8af1-b1534f303f19" points="5.336 13.613 -1.329 15.225 2.551 19.554 6.711 20.148 5.336 13.613"/><polygon class="a2237137-2868-4663-8af1-b1534f303f19" points="10.061 20.627 21.153 22.211 13.363 13.521 10.061 20.627"/><polygon class="a2237137-2868-4663-8af1-b1534f303f19" points="19.831 10.105 21.153 22.211 23.588 14.375 25.329 8.775 19.831 10.105"/><polygon class="a2237137-2868-4663-8af1-b1534f303f19" points="14.333 11.435 13.363 13.521 21.153 22.211 19.831 10.105 14.333 11.435"/><polygon class="a2237137-2868-4663-8af1-b1534f303f19" points="16.175 -1.437 2.847 1.789 11.648 2.872 16.175 -1.437"/><polygon class="a2237137-2868-4663-8af1-b1534f303f19" points="11.648 2.872 2.847 1.789 7.423 6.894 11.648 2.872"/><polygon class="a2237137-2868-4663-8af1-b1534f303f19" points="17.952 3.649 18.902 1.605 16.175 -1.437 11.648 2.872 17.952 3.649"/><polygon class="a2237137-2868-4663-8af1-b1534f303f19" points="4.506 9.671 -1.329 15.225 5.336 13.613 4.506 9.671"/><polygon class="a2237137-2868-4663-8af1-b1534f303f19" points="4.712 9.475 7.423 6.894 2.847 1.789 4.467 9.484 4.712 9.475"/><polygon class="a2237137-2868-4663-8af1-b1534f303f19" points="2.847 1.789 0.413 9.621 4.467 9.484 2.847 1.789"/><polygon class="a2237137-2868-4663-8af1-b1534f303f19" points="4.467 9.484 0.413 9.621 -1.329 15.225 4.506 9.671 4.467 9.484"/></g></svg>